<svg xmlns="http://www.w3.org/2000/svg" version="1.1" xmlns:xlink="http://www.w3.org/1999/xlink" xmlns:svgjs="http://svgjs.dev/svgjs" width="1000" height="310" viewBox="0 0 1000 310"><g transform="matrix(1,0,0,1,-0.6056625908045135,-0.31856544566696243)"><svg viewBox="0 0 396 123" data-background-color="#d0e7f7" preserveAspectRatio="xMidYMid meet" height="310" width="1000" xmlns="http://www.w3.org/2000/svg" xmlns:xlink="http://www.w3.org/1999/xlink"><g id="tight-bounds" transform="matrix(1,0,0,1,0.23984238595858187,0.12639854779689585)"><svg viewBox="0 0 395.52 122.74688767632345" height="122.74688767632345" width="395.52"><g><svg viewBox="0 0 608.9052347547795 188.9695147046174" height="122.74688767632345" width="395.52"><g transform="matrix(1,0,0,1,0,55.72282414148703)"><svg viewBox="0 0 395.52 77.52386642164335" height="77.52386642164335" width="395.52"><g id="textblocktransform"><svg viewBox="0 0 395.52 77.52386642164335" height="77.52386642164335" width="395.52" id="textblock"><g><svg viewBox="0 0 395.52 51.71156756756757" height="51.71156756756757" width="395.52"><g transform="matrix(1,0,0,1,0,0)"><svg width="395.52" viewBox="3 -38 290.2799987792969 38.70000076293945" height="51.71156756756757" data-palette-color="#0f22ea"><g class="wordmark-text-0" data-fill-palette-color="primary" id="text-0"><path d="M5.75-34.65L13.2-34.65Q14.1-33 15.28-30.58 16.45-28.15 17.73-25.33 19-22.5 20.25-19.55 21.5-16.6 22.6-14L22.6-14Q23.7-16.6 24.95-19.55 26.2-22.5 27.48-25.33 28.75-28.15 29.93-30.58 31.1-33 32-34.65L32-34.65 39.1-34.65Q39.6-31.2 40.03-26.93 40.45-22.65 40.78-18.03 41.1-13.4 41.38-8.75 41.65-4.1 41.85 0L41.85 0 34.25 0Q34.1-5.05 33.85-11 33.6-16.95 33.1-23L33.1-23Q32.2-20.9 31.1-18.35 30-15.8 28.93-13.25 27.85-10.7 26.85-8.38 25.85-6.05 25.15-4.4L25.15-4.4 19.7-4.4Q19-6.05 18-8.38 17-10.7 15.93-13.25 14.85-15.8 13.75-18.35 12.65-20.9 11.75-23L11.75-23Q11.25-16.95 11-11 10.75-5.05 10.6 0L10.6 0 3 0Q3.2-4.1 3.48-8.75 3.75-13.4 4.08-18.03 4.4-22.65 4.83-26.93 5.25-31.2 5.75-34.65L5.75-34.65ZM80.4 0L72.05 0Q71.5-1.8 70.82-3.7 70.15-5.6 69.5-7.5L69.5-7.5 56-7.5Q55.35-5.6 54.67-3.7 54-1.8 53.45 0L53.45 0 45.35 0Q47.3-5.6 49.05-10.35 50.8-15.1 52.47-19.3 54.15-23.5 55.77-27.28 57.4-31.05 59.15-34.65L59.15-34.65 66.6-34.65Q68.3-31.05 69.95-27.28 71.6-23.5 73.27-19.3 74.95-15.1 76.7-10.35 78.45-5.6 80.4 0L80.4 0ZM62.7-26.8L62.7-26.8Q62.45-26.05 61.95-24.75 61.45-23.45 60.8-21.75 60.15-20.05 59.37-18 58.6-15.95 57.8-13.7L57.8-13.7 67.65-13.7Q66.85-15.95 66.1-18 65.35-20.05 64.67-21.75 64-23.45 63.5-24.75 63-26.05 62.7-26.8ZM114.15 0L104.8 0Q103.35-2.9 101.62-5.88 99.9-8.85 97.65-11.95L97.65-11.95Q96.95-11.05 95.87-9.45 94.8-7.85 93.72-6.05 92.65-4.25 91.7-2.6 90.75-0.95 90.3 0L90.3 0 81.4 0Q83.6-4.05 86.52-8.5 89.45-12.95 93.05-17.95L93.05-17.95 81.9-34.65 91.35-34.65 98.1-23.85 104.7-34.65 113.6-34.65 102.6-17.85Q106.8-12.4 109.65-7.78 112.5-3.15 114.15 0L114.15 0ZM117.14-38L124.49-38 124.49-34.3Q124.49-31.9 124.12-29.05 123.74-26.2 123.29-23.3L123.29-23.3 118.34-23.3Q117.79-26.2 117.47-29.05 117.14-31.9 117.14-34.35L117.14-34.35 117.14-38ZM140.44-5.95L140.44-5.95Q142.09-5.95 143.17-6.23 144.24-6.5 144.89-6.98 145.54-7.45 145.79-8.1 146.04-8.75 146.04-9.55L146.04-9.55Q146.04-11.25 144.44-12.38 142.84-13.5 138.94-14.8L138.94-14.8Q137.24-15.4 135.54-16.18 133.84-16.95 132.49-18.13 131.14-19.3 130.29-20.98 129.44-22.65 129.44-25.05L129.44-25.05Q129.44-27.45 130.34-29.38 131.24-31.3 132.89-32.65 134.54-34 136.89-34.73 139.24-35.45 142.19-35.45L142.19-35.45Q145.69-35.45 148.24-34.7 150.79-33.95 152.44-33.05L152.44-33.05 150.19-26.9Q148.74-27.65 146.97-28.23 145.19-28.8 142.69-28.8L142.69-28.8Q139.89-28.8 138.67-28.03 137.44-27.25 137.44-25.65L137.44-25.65Q137.44-24.7 137.89-24.05 138.34-23.4 139.17-22.88 139.99-22.35 141.06-21.93 142.14-21.5 143.44-21.05L143.44-21.05Q146.14-20.05 148.14-19.07 150.14-18.1 151.47-16.8 152.79-15.5 153.44-13.75 154.09-12 154.09-9.5L154.09-9.5Q154.09-4.65 150.69-1.98 147.29 0.7 140.44 0.7L140.44 0.7Q138.14 0.7 136.29 0.43 134.44 0.15 133.02-0.25 131.59-0.65 130.56-1.1 129.54-1.55 128.84-1.95L128.84-1.95 131.04-8.15Q132.59-7.3 134.87-6.63 137.14-5.95 140.44-5.95Z" fill="#0f22ea" data-fill-palette-color="primary"></path><path d="M201.64 0L193.29 0Q192.74-1.8 192.06-3.7 191.39-5.6 190.74-7.5L190.74-7.5 177.24-7.5Q176.59-5.6 175.91-3.7 175.24-1.8 174.69 0L174.69 0 166.59 0Q168.54-5.6 170.29-10.35 172.04-15.1 173.71-19.3 175.39-23.5 177.01-27.28 178.64-31.05 180.39-34.65L180.39-34.65 187.84-34.65Q189.54-31.05 191.19-27.28 192.84-23.5 194.51-19.3 196.19-15.1 197.94-10.35 199.69-5.6 201.64 0L201.64 0ZM183.94-26.8L183.94-26.8Q183.69-26.05 183.19-24.75 182.69-23.45 182.04-21.75 181.39-20.05 180.61-18 179.84-15.95 179.04-13.7L179.04-13.7 188.89-13.7Q188.09-15.95 187.34-18 186.59-20.05 185.91-21.75 185.24-23.45 184.74-24.75 184.24-26.05 183.94-26.8ZM235.39 0L226.04 0Q224.59-2.9 222.86-5.88 221.14-8.85 218.89-11.95L218.89-11.95Q218.19-11.05 217.11-9.45 216.04-7.85 214.96-6.05 213.89-4.25 212.94-2.6 211.99-0.95 211.54 0L211.54 0 202.64 0Q204.84-4.05 207.76-8.5 210.69-12.95 214.29-17.95L214.29-17.95 203.14-34.65 212.59-34.65 219.34-23.85 225.94-34.65 234.84-34.65 223.84-17.85Q228.04-12.4 230.89-7.78 233.74-3.15 235.39 0L235.39 0ZM264.43 0L239.88 0 239.88-34.65 263.28-34.65 263.28-28.1 247.68-28.1 247.68-21.3 261.53-21.3 261.53-14.9 247.68-14.9 247.68-6.55 264.43-6.55 264.43 0ZM279.63-5.95L279.63-5.95Q281.28-5.95 282.36-6.23 283.43-6.5 284.08-6.98 284.73-7.45 284.98-8.1 285.23-8.75 285.23-9.55L285.23-9.55Q285.23-11.25 283.63-12.38 282.03-13.5 278.13-14.8L278.13-14.8Q276.43-15.4 274.73-16.18 273.03-16.95 271.68-18.13 270.33-19.3 269.48-20.98 268.63-22.65 268.63-25.05L268.63-25.05Q268.63-27.45 269.53-29.38 270.43-31.3 272.08-32.65 273.73-34 276.08-34.73 278.43-35.45 281.38-35.45L281.38-35.45Q284.88-35.45 287.43-34.7 289.98-33.95 291.63-33.05L291.63-33.05 289.38-26.9Q287.93-27.65 286.16-28.23 284.38-28.8 281.88-28.8L281.88-28.8Q279.08-28.8 277.86-28.03 276.63-27.25 276.63-25.65L276.63-25.65Q276.63-24.7 277.08-24.05 277.53-23.4 278.36-22.88 279.18-22.35 280.26-21.93 281.33-21.5 282.63-21.05L282.63-21.05Q285.33-20.05 287.33-19.07 289.33-18.1 290.66-16.8 291.98-15.5 292.63-13.75 293.28-12 293.28-9.5L293.28-9.5Q293.28-4.65 289.88-1.98 286.48 0.7 279.63 0.7L279.63 0.7Q277.33 0.7 275.48 0.43 273.63 0.15 272.21-0.25 270.78-0.65 269.76-1.1 268.73-1.55 268.03-1.95L268.03-1.95 270.23-8.15Q271.78-7.3 274.06-6.63 276.33-5.95 279.63-5.95Z" fill="#043b74" data-fill-palette-color="secondary"></path></g></svg></g></svg></g><g transform="matrix(1,0,0,1,163.310208,63.91942759264865)"><svg viewBox="0 0 232.209792 13.604438828994699" height="13.604438828994699" width="232.209792"><g transform="matrix(1,0,0,1,0,0)"><svg width="232.209792" viewBox="4 -38.79999923706055 820.0700073242188 48.04999923706055" height="13.604438828994699" data-palette-color="#043b74"><path d="M14.4-35.05L14.4-35.05Q22.15-35.05 26.3-32.33 30.45-29.6 30.45-23.4L30.45-23.4Q30.45-17.15 26.25-14.38 22.05-11.6 14.25-11.6L14.25-11.6 11.8-11.6 11.8 0 4 0 4-34.15Q6.55-34.65 9.4-34.85 12.25-35.05 14.4-35.05ZM14.9-28.4L14.9-28.4Q14.05-28.4 13.23-28.35 12.4-28.3 11.8-28.25L11.8-28.25 11.8-18.25 14.25-18.25Q18.3-18.25 20.35-19.35 22.4-20.45 22.4-23.45L22.4-23.45Q22.4-24.9 21.88-25.85 21.35-26.8 20.38-27.38 19.4-27.95 18-28.18 16.6-28.4 14.9-28.4ZM58.15-26.3L58.15-0.9Q56.25-0.35 53.25 0.13 50.25 0.6 46.95 0.6L46.95 0.6Q43.6 0.6 41.37-0.3 39.15-1.2 37.85-2.83 36.55-4.45 36-6.7 35.45-8.95 35.45-11.65L35.45-11.65 35.45-26.3 42.9-26.3 42.9-12.55Q42.9-8.95 43.85-7.35 44.8-5.75 47.4-5.75L47.4-5.75Q48.2-5.75 49.1-5.83 50-5.9 50.7-6L50.7-6 50.7-26.3 58.15-26.3ZM64.9-10.75L64.9-32.85 72.35-34.05 72.35-26.3 81.3-26.3 81.3-20.1 72.35-20.1 72.35-10.85Q72.35-8.5 73.17-7.1 74-5.7 76.5-5.7L76.5-5.7Q77.7-5.7 78.97-5.93 80.25-6.15 81.3-6.55L81.3-6.55 82.35-0.75Q81-0.2 79.35 0.2 77.7 0.6 75.3 0.6L75.3 0.6Q72.25 0.6 70.25-0.23 68.25-1.05 67.05-2.53 65.85-4 65.37-6.1 64.9-8.2 64.9-10.75L64.9-10.75ZM114.99-26.3L122.69-26.3Q120.44-18.7 117.99-12.05 115.54-5.4 112.64 0.85L112.64 0.85Q111.59 3.1 110.54 4.67 109.49 6.25 108.24 7.28 106.99 8.3 105.42 8.78 103.84 9.25 101.74 9.25L101.74 9.25Q99.99 9.25 98.52 8.93 97.04 8.6 96.09 8.2L96.09 8.2 97.39 2.25Q98.54 2.65 99.44 2.8 100.34 2.95 101.34 2.95L101.34 2.95Q103.34 2.95 104.42 1.88 105.49 0.8 106.24-1.1L106.24-1.1Q103.69-6.1 101.14-12.33 98.59-18.55 96.34-26.3L96.34-26.3 104.24-26.3Q104.74-24.35 105.42-22.08 106.09-19.8 106.84-17.48 107.59-15.15 108.37-12.95 109.14-10.75 109.84-8.95L109.84-8.95Q110.49-10.75 111.19-12.95 111.89-15.15 112.57-17.48 113.24-19.8 113.87-22.08 114.49-24.35 114.99-26.3L114.99-26.3ZM150.59-13.2L150.59-13.2Q150.59-10.1 149.69-7.53 148.79-4.95 147.09-3.13 145.39-1.3 143.01-0.3 140.64 0.7 137.69 0.7L137.69 0.7Q134.79 0.7 132.41-0.3 130.04-1.3 128.34-3.13 126.64-4.95 125.69-7.53 124.74-10.1 124.74-13.2L124.74-13.2Q124.74-16.3 125.71-18.85 126.69-21.4 128.41-23.2 130.14-25 132.51-26 134.89-27 137.69-27L137.69-27Q140.54-27 142.91-26 145.29-25 146.99-23.2 148.69-21.4 149.64-18.85 150.59-16.3 150.59-13.2ZM142.99-13.2L142.99-13.2Q142.99-16.65 141.61-18.63 140.24-20.6 137.69-20.6L137.69-20.6Q135.14-20.6 133.74-18.63 132.34-16.65 132.34-13.2L132.34-13.2Q132.34-9.75 133.74-7.73 135.14-5.7 137.69-5.7L137.69-5.7Q140.24-5.7 141.61-7.73 142.99-9.75 142.99-13.2ZM178.79-26.3L178.79-0.9Q176.89-0.35 173.89 0.13 170.89 0.6 167.59 0.6L167.59 0.6Q164.24 0.6 162.01-0.3 159.79-1.2 158.49-2.83 157.19-4.45 156.64-6.7 156.09-8.95 156.09-11.65L156.09-11.65 156.09-26.3 163.54-26.3 163.54-12.55Q163.54-8.95 164.49-7.35 165.44-5.75 168.04-5.75L168.04-5.75Q168.84-5.75 169.74-5.83 170.64-5.9 171.34-6L171.34-6 171.34-26.3 178.79-26.3ZM202.88-25.85L201.63-19.7Q200.63-19.95 199.28-20.23 197.93-20.5 196.38-20.5L196.38-20.5Q195.68-20.5 194.71-20.38 193.73-20.25 193.23-20.1L193.23-20.1 193.23 0 185.78 0 185.78-24.9Q187.78-25.6 190.51-26.23 193.23-26.85 196.58-26.85L196.58-26.85Q197.18-26.85 198.03-26.78 198.88-26.7 199.73-26.58 200.58-26.45 201.43-26.28 202.28-26.1 202.88-25.85L202.88-25.85ZM226.33 0L218.88 0 218.88-37.6 226.33-38.8 226.33-26.2Q227.08-26.45 228.25-26.68 229.43-26.9 230.53-26.9L230.53-26.9Q233.73-26.9 235.85-26.03 237.98-25.15 239.25-23.55 240.53-21.95 241.05-19.75 241.58-17.55 241.58-14.85L241.58-14.85 241.58 0 234.13 0 234.13-13.95Q234.13-17.55 233.2-19.05 232.28-20.55 229.78-20.55L229.78-20.55Q228.78-20.55 227.9-20.38 227.03-20.2 226.33-20L226.33-20 226.33 0ZM258.38-5.2L258.38-5.2Q259.48-5.2 260.48-5.25 261.48-5.3 262.08-5.4L262.08-5.4 262.08-11.05Q261.63-11.15 260.73-11.25 259.83-11.35 259.08-11.35L259.08-11.35Q258.03-11.35 257.1-11.23 256.18-11.1 255.48-10.75 254.78-10.4 254.38-9.8 253.98-9.2 253.98-8.3L253.98-8.3Q253.98-6.55 255.15-5.88 256.33-5.2 258.38-5.2ZM257.78-27L257.78-27Q261.08-27 263.28-26.25 265.48-25.5 266.8-24.1 268.13-22.7 268.68-20.7 269.23-18.7 269.23-16.25L269.23-16.25 269.23-0.75Q267.63-0.4 264.78 0.08 261.93 0.55 257.88 0.55L257.88 0.55Q255.33 0.55 253.25 0.1 251.18-0.35 249.68-1.38 248.18-2.4 247.38-4.05 246.58-5.7 246.58-8.1L246.58-8.1Q246.58-10.4 247.5-12 248.43-13.6 249.98-14.55 251.53-15.5 253.53-15.93 255.53-16.35 257.68-16.35L257.68-16.35Q259.13-16.35 260.25-16.23 261.38-16.1 262.08-15.9L262.08-15.9 262.08-16.6Q262.08-18.5 260.93-19.65 259.78-20.8 256.93-20.8L256.93-20.8Q255.03-20.8 253.18-20.53 251.33-20.25 249.98-19.75L249.98-19.75 249.03-25.75Q249.68-25.95 250.65-26.18 251.63-26.4 252.78-26.58 253.93-26.75 255.2-26.88 256.48-27 257.78-27ZM275.97 0L275.97-25.4Q277.87-25.95 280.87-26.43 283.87-26.9 287.17-26.9L287.17-26.9Q290.52-26.9 292.75-26.03 294.97-25.15 296.27-23.55 297.57-21.95 298.12-19.75 298.67-17.55 298.67-14.85L298.67-14.85 298.67 0 291.22 0 291.22-13.95Q291.22-17.55 290.27-19.05 289.32-20.55 286.72-20.55L286.72-20.55Q285.92-20.55 285.02-20.48 284.12-20.4 283.42-20.3L283.42-20.3 283.42 0 275.97 0ZM311.77-13.35L311.77-13.35Q311.77-9.9 313.32-7.8 314.87-5.7 317.92-5.7L317.92-5.7Q318.92-5.7 319.77-5.78 320.62-5.85 321.17-5.95L321.17-5.95 321.17-19.5Q320.47-19.95 319.35-20.25 318.22-20.55 317.07-20.55L317.07-20.55Q311.77-20.55 311.77-13.35ZM328.62-38.8L328.62-0.85Q327.62-0.55 326.32-0.28 325.02 0 323.6 0.2 322.17 0.4 320.69 0.53 319.22 0.65 317.87 0.65L317.87 0.65Q314.62 0.65 312.07-0.3 309.52-1.25 307.77-3.03 306.02-4.8 305.1-7.33 304.17-9.85 304.17-13L304.17-13Q304.17-16.2 304.97-18.78 305.77-21.35 307.27-23.15 308.77-24.95 310.94-25.9 313.12-26.85 315.92-26.85L315.92-26.85Q317.47-26.85 318.69-26.55 319.92-26.25 321.17-25.7L321.17-25.7 321.17-37.6 328.62-38.8ZM343.17-5.35L343.17-5.35Q345.22-5.35 346.07-5.75 346.92-6.15 346.92-7.3L346.92-7.3Q346.92-8.2 345.82-8.88 344.72-9.55 342.47-10.4L342.47-10.4Q340.72-11.05 339.29-11.75 337.87-12.45 336.87-13.43 335.87-14.4 335.32-15.75 334.77-17.1 334.77-19L334.77-19Q334.77-22.7 337.52-24.85 340.27-27 345.07-27L345.07-27Q347.47-27 349.67-26.58 351.87-26.15 353.17-25.65L353.17-25.65 351.87-19.85Q350.57-20.3 349.04-20.65 347.52-21 345.62-21L345.62-21Q342.12-21 342.12-19.05L342.12-19.05Q342.12-18.6 342.27-18.25 342.42-17.9 342.87-17.57 343.32-17.25 344.09-16.88 344.87-16.5 346.07-16.05L346.07-16.05Q348.52-15.15 350.12-14.28 351.72-13.4 352.64-12.38 353.57-11.35 353.94-10.1 354.32-8.85 354.32-7.2L354.32-7.2Q354.32-3.3 351.39-1.3 348.47 0.7 343.12 0.7L343.12 0.7Q339.62 0.7 337.29 0.1 334.97-0.5 334.07-0.9L334.07-0.9 335.32-6.95Q337.22-6.2 339.22-5.78 341.22-5.35 343.17-5.35ZM381.91-5.2L381.91-5.2Q383.01-5.2 384.01-5.25 385.01-5.3 385.61-5.4L385.61-5.4 385.61-11.05Q385.16-11.15 384.26-11.25 383.36-11.35 382.61-11.35L382.61-11.35Q381.56-11.35 380.64-11.23 379.71-11.1 379.01-10.75 378.31-10.4 377.91-9.8 377.51-9.2 377.51-8.3L377.51-8.3Q377.51-6.55 378.69-5.88 379.86-5.2 381.91-5.2ZM381.31-27L381.31-27Q384.61-27 386.81-26.25 389.01-25.5 390.34-24.1 391.66-22.7 392.21-20.7 392.76-18.7 392.76-16.25L392.76-16.25 392.76-0.75Q391.16-0.4 388.31 0.08 385.46 0.55 381.41 0.55L381.41 0.55Q378.86 0.55 376.79 0.1 374.71-0.35 373.21-1.38 371.71-2.4 370.91-4.05 370.11-5.7 370.11-8.1L370.11-8.1Q370.11-10.4 371.04-12 371.96-13.6 373.51-14.55 375.06-15.5 377.06-15.93 379.06-16.35 381.21-16.35L381.21-16.35Q382.66-16.35 383.79-16.23 384.91-16.1 385.61-15.9L385.61-15.9 385.61-16.6Q385.61-18.5 384.46-19.65 383.31-20.8 380.46-20.8L380.46-20.8Q378.56-20.8 376.71-20.53 374.86-20.25 373.51-19.75L373.51-19.75 372.56-25.75Q373.21-25.95 374.19-26.18 375.16-26.4 376.31-26.58 377.46-26.75 378.74-26.88 380.01-27 381.31-27ZM416.61-25.85L415.36-19.7Q414.36-19.95 413.01-20.23 411.66-20.5 410.11-20.5L410.11-20.5Q409.41-20.5 408.44-20.38 407.46-20.25 406.96-20.1L406.96-20.1 406.96 0 399.51 0 399.51-24.9Q401.51-25.6 404.24-26.23 406.96-26.85 410.31-26.85L410.31-26.85Q410.91-26.85 411.76-26.78 412.61-26.7 413.46-26.58 414.31-26.45 415.16-26.28 416.01-26.1 416.61-25.85L416.61-25.85ZM444.71-13.2L444.71-13.2Q444.71-10.1 443.81-7.53 442.91-4.95 441.21-3.13 439.51-1.3 437.13-0.3 434.76 0.7 431.81 0.7L431.81 0.7Q428.91 0.7 426.53-0.3 424.16-1.3 422.46-3.13 420.76-4.95 419.81-7.53 418.86-10.1 418.86-13.2L418.86-13.2Q418.86-16.3 419.83-18.85 420.81-21.4 422.53-23.2 424.26-25 426.63-26 429.01-27 431.81-27L431.81-27Q434.66-27 437.03-26 439.41-25 441.11-23.2 442.81-21.4 443.76-18.85 444.71-16.3 444.71-13.2ZM437.11-13.2L437.11-13.2Q437.11-16.65 435.73-18.63 434.36-20.6 431.81-20.6L431.81-20.6Q429.26-20.6 427.86-18.63 426.46-16.65 426.46-13.2L426.46-13.2Q426.46-9.75 427.86-7.73 429.26-5.7 431.81-5.7L431.81-5.7Q434.36-5.7 435.73-7.73 437.11-9.75 437.11-13.2ZM472.91-26.3L472.91-0.9Q471.01-0.35 468.01 0.13 465.01 0.6 461.71 0.6L461.71 0.6Q458.36 0.6 456.13-0.3 453.91-1.2 452.61-2.83 451.31-4.45 450.76-6.7 450.21-8.95 450.21-11.65L450.21-11.65 450.21-26.3 457.66-26.3 457.66-12.55Q457.66-8.95 458.61-7.35 459.56-5.75 462.16-5.75L462.16-5.75Q462.96-5.75 463.86-5.83 464.76-5.9 465.46-6L465.46-6 465.46-26.3 472.91-26.3ZM479.9 0L479.9-25.4Q481.8-25.95 484.8-26.43 487.8-26.9 491.1-26.9L491.1-26.9Q494.45-26.9 496.68-26.03 498.9-25.15 500.2-23.55 501.5-21.95 502.05-19.75 502.6-17.55 502.6-14.85L502.6-14.85 502.6 0 495.15 0 495.15-13.95Q495.15-17.55 494.2-19.05 493.25-20.55 490.65-20.55L490.65-20.55Q489.85-20.55 488.95-20.48 488.05-20.4 487.35-20.3L487.35-20.3 487.35 0 479.9 0ZM515.7-13.35L515.7-13.35Q515.7-9.9 517.25-7.8 518.8-5.7 521.85-5.7L521.85-5.7Q522.85-5.7 523.7-5.78 524.55-5.85 525.1-5.95L525.1-5.95 525.1-19.5Q524.4-19.95 523.27-20.25 522.15-20.55 521-20.55L521-20.55Q515.7-20.55 515.7-13.35ZM532.55-38.8L532.55-0.85Q531.55-0.55 530.25-0.28 528.95 0 527.52 0.2 526.1 0.4 524.63 0.53 523.15 0.65 521.8 0.65L521.8 0.65Q518.55 0.65 516-0.3 513.45-1.25 511.7-3.03 509.95-4.8 509.03-7.33 508.1-9.85 508.1-13L508.1-13Q508.1-16.2 508.9-18.78 509.7-21.35 511.2-23.15 512.7-24.95 514.88-25.9 517.05-26.85 519.85-26.85L519.85-26.85Q521.4-26.85 522.63-26.55 523.85-26.25 525.1-25.7L525.1-25.7 525.1-37.6 532.55-38.8ZM551.29-10.75L551.29-32.85 558.75-34.05 558.75-26.3 567.69-26.3 567.69-20.1 558.75-20.1 558.75-10.85Q558.75-8.5 559.57-7.1 560.39-5.7 562.89-5.7L562.89-5.7Q564.09-5.7 565.37-5.93 566.64-6.15 567.69-6.55L567.69-6.55 568.75-0.75Q567.39-0.2 565.75 0.2 564.09 0.6 561.69 0.6L561.69 0.6Q558.64 0.6 556.64-0.23 554.64-1.05 553.44-2.53 552.25-4 551.77-6.1 551.29-8.2 551.29-10.75L551.29-10.75ZM581.19 0L573.74 0 573.74-37.6 581.19-38.8 581.19-26.2Q581.94-26.45 583.12-26.68 584.29-26.9 585.39-26.9L585.39-26.9Q588.59-26.9 590.72-26.03 592.84-25.15 594.12-23.55 595.39-21.95 595.92-19.75 596.44-17.55 596.44-14.85L596.44-14.85 596.44 0 588.99 0 588.99-13.95Q588.99-17.55 588.07-19.05 587.14-20.55 584.64-20.55L584.64-20.55Q583.64-20.55 582.77-20.38 581.89-20.2 581.19-20L581.19-20 581.19 0ZM601.94-12.95L601.94-12.95Q601.94-16.45 603.01-19.07 604.09-21.7 605.84-23.45 607.59-25.2 609.86-26.1 612.14-27 614.54-27L614.54-27Q620.14-27 623.39-23.58 626.64-20.15 626.64-13.5L626.64-13.5Q626.64-12.85 626.59-12.08 626.54-11.3 626.49-10.7L626.49-10.7 609.59-10.7Q609.84-8.4 611.74-7.05 613.64-5.7 616.84-5.7L616.84-5.7Q618.89-5.7 620.86-6.08 622.84-6.45 624.09-7L624.09-7 625.09-0.95Q624.49-0.65 623.49-0.35 622.49-0.05 621.26 0.18 620.04 0.4 618.64 0.55 617.24 0.7 615.84 0.7L615.84 0.7Q612.29 0.7 609.66-0.35 607.04-1.4 605.31-3.23 603.59-5.05 602.76-7.55 601.94-10.05 601.94-12.95ZM609.59-15.8L619.44-15.8Q619.39-16.75 619.11-17.65 618.84-18.55 618.26-19.25 617.69-19.95 616.81-20.4 615.94-20.85 614.64-20.85L614.64-20.85Q613.39-20.85 612.49-20.43 611.59-20 610.99-19.3 610.39-18.6 610.06-17.68 609.74-16.75 609.59-15.8L609.59-15.8ZM639.84-26.3L639.84 0 632.39 0 632.39-26.3 639.84-26.3ZM640.54-33.9L640.54-33.9Q640.54-31.85 639.21-30.68 637.89-29.5 636.09-29.5L636.09-29.5Q634.29-29.5 632.96-30.68 631.64-31.85 631.64-33.9L631.64-33.9Q631.64-35.95 632.96-37.13 634.29-38.3 636.09-38.3L636.09-38.3Q637.89-38.3 639.21-37.13 640.54-35.95 640.54-33.9ZM663.93-25.85L662.68-19.7Q661.68-19.95 660.33-20.23 658.98-20.5 657.43-20.5L657.43-20.5Q656.73-20.5 655.76-20.38 654.78-20.25 654.28-20.1L654.28-20.1 654.28 0 646.83 0 646.83-24.9Q648.83-25.6 651.56-26.23 654.28-26.85 657.63-26.85L657.63-26.85Q658.23-26.85 659.08-26.78 659.93-26.7 660.78-26.58 661.63-26.45 662.48-26.28 663.33-26.1 663.93-25.85L663.93-25.85ZM679.93 0L679.93-25.4Q681.83-25.95 684.83-26.43 687.83-26.9 691.13-26.9L691.13-26.9Q694.48-26.9 696.7-26.03 698.93-25.15 700.23-23.55 701.53-21.95 702.08-19.75 702.63-17.55 702.63-14.85L702.63-14.85 702.63 0 695.18 0 695.18-13.95Q695.18-17.55 694.23-19.05 693.28-20.55 690.68-20.55L690.68-20.55Q689.88-20.55 688.98-20.48 688.08-20.4 687.38-20.3L687.38-20.3 687.38 0 679.93 0ZM708.13-12.95L708.13-12.95Q708.13-16.45 709.2-19.07 710.28-21.7 712.03-23.45 713.78-25.2 716.05-26.1 718.33-27 720.73-27L720.73-27Q726.33-27 729.58-23.58 732.83-20.15 732.83-13.5L732.83-13.5Q732.83-12.85 732.78-12.08 732.73-11.3 732.68-10.7L732.68-10.7 715.78-10.7Q716.03-8.4 717.93-7.05 719.83-5.7 723.03-5.7L723.03-5.7Q725.08-5.7 727.05-6.08 729.03-6.45 730.28-7L730.28-7 731.28-0.95Q730.68-0.65 729.68-0.35 728.68-0.05 727.45 0.18 726.23 0.4 724.83 0.55 723.43 0.7 722.03 0.7L722.03 0.7Q718.48 0.7 715.85-0.35 713.23-1.4 711.5-3.23 709.78-5.05 708.95-7.55 708.13-10.05 708.13-12.95ZM715.78-15.8L725.63-15.8Q725.58-16.75 725.3-17.65 725.03-18.55 724.45-19.25 723.88-19.95 723-20.4 722.13-20.85 720.83-20.85L720.83-20.85Q719.58-20.85 718.68-20.43 717.78-20 717.18-19.3 716.58-18.6 716.25-17.68 715.93-16.75 715.78-15.8L715.78-15.8ZM737.32-13.15L737.32-13.15Q737.32-16 738.25-18.53 739.17-21.05 740.92-22.93 742.67-24.8 745.17-25.9 747.67-27 750.87-27L750.87-27Q752.97-27 754.72-26.63 756.47-26.25 758.12-25.55L758.12-25.55 756.57-19.6Q755.52-20 754.27-20.3 753.02-20.6 751.47-20.6L751.47-20.6Q748.17-20.6 746.55-18.55 744.92-16.5 744.92-13.15L744.92-13.15Q744.92-9.6 746.45-7.65 747.97-5.7 751.77-5.7L751.77-5.7Q753.12-5.7 754.67-5.95 756.22-6.2 757.52-6.75L757.52-6.75 758.57-0.65Q757.27-0.1 755.32 0.3 753.37 0.7 751.02 0.7L751.02 0.7Q747.42 0.7 744.82-0.38 742.22-1.45 740.55-3.3 738.87-5.15 738.1-7.68 737.32-10.2 737.32-13.15ZM771.02-38.8L771.02-16.8Q772.12-18 773.3-19.3 774.47-20.6 775.57-21.88 776.67-23.15 777.65-24.3 778.62-25.45 779.32-26.3L779.32-26.3 788.17-26.3Q785.52-23.25 783-20.48 780.47-17.7 777.47-14.75L777.47-14.75Q778.97-13.4 780.57-11.53 782.17-9.65 783.67-7.65 785.17-5.65 786.42-3.65 787.67-1.65 788.52 0L788.52 0 779.97 0Q779.17-1.3 778.15-2.88 777.12-4.45 775.97-6.03 774.82-7.6 773.55-9.05 772.27-10.5 771.02-11.5L771.02-11.5 771.02 0 763.57 0 763.57-37.6 771.02-38.8ZM800.07-5.35L800.07-5.35Q802.12-5.35 802.97-5.75 803.82-6.15 803.82-7.3L803.82-7.3Q803.82-8.2 802.72-8.88 801.62-9.55 799.37-10.4L799.37-10.4Q797.62-11.05 796.19-11.75 794.77-12.45 793.77-13.43 792.77-14.4 792.22-15.75 791.67-17.1 791.67-19L791.67-19Q791.67-22.7 794.42-24.85 797.17-27 801.97-27L801.97-27Q804.37-27 806.57-26.58 808.77-26.15 810.07-25.65L810.07-25.65 808.77-19.85Q807.47-20.3 805.94-20.65 804.42-21 802.52-21L802.52-21Q799.02-21 799.02-19.05L799.02-19.05Q799.02-18.6 799.17-18.25 799.32-17.9 799.77-17.57 800.22-17.25 800.99-16.88 801.77-16.5 802.97-16.05L802.97-16.05Q805.42-15.15 807.02-14.28 808.62-13.4 809.54-12.38 810.47-11.35 810.84-10.1 811.22-8.85 811.22-7.2L811.22-7.2Q811.22-3.3 808.29-1.3 805.37 0.7 800.02 0.7L800.02 0.7Q796.52 0.7 794.19 0.1 791.87-0.5 790.97-0.9L790.97-0.9 792.22-6.95Q794.12-6.2 796.12-5.78 798.12-5.35 800.07-5.35ZM824.07-3.95L824.07-3.95Q824.07-1.7 822.64-0.53 821.22 0.65 819.42 0.65L819.42 0.65Q817.62 0.65 816.19-0.53 814.77-1.7 814.77-3.95L814.77-3.95Q814.77-6.2 816.19-7.38 817.62-8.55 819.42-8.55L819.42-8.55Q821.22-8.55 822.64-7.38 824.07-6.2 824.07-3.95Z" opacity="1" transform="matrix(1,0,0,1,0,0)" fill="#043b74" class="slogan-text-1" data-fill-palette-color="secondary" id="text-1"></path></svg></g></svg></g></svg></g></svg></g><g transform="matrix(1,0,0,1,419.93572005016216,0)"><svg viewBox="0 0 188.9695147046174 188.9695147046174" height="188.9695147046174" width="188.9695147046174"><g><svg></svg></g><g id="icon-0"><svg viewBox="0 0 188.9695147046174 188.9695147046174" height="188.9695147046174" width="188.9695147046174"><g><path d="M0 94.485c0-52.182 42.302-94.485 94.485-94.485 52.182 0 94.485 42.302 94.485 94.485 0 52.182-42.302 94.485-94.485 94.485-52.182 0-94.485-42.302-94.485-94.485zM94.485 184.306c49.607 0 89.821-40.214 89.821-89.821 0-49.607-40.214-89.821-89.821-89.822-49.607 0-89.821 40.214-89.822 89.822 0 49.607 40.214 89.821 89.822 89.821z" data-fill-palette-color="accent" fill="#0023ff" stroke="transparent"></path></g><g transform="matrix(1,0,0,1,67.59770899062212,39.613421871327446)"><svg viewBox="0 0 53.77409672337315 109.74267096196252" height="109.74267096196252" width="53.77409672337315"><g><svg xmlns="http://www.w3.org/2000/svg" xmlns:xlink="http://www.w3.org/1999/xlink" version="1.1" x="0" y="0" viewBox="28.412988662719727 11.999000549316406 43.17601013183594 88.11399841308594" enable-background="new 0 0 100 100" xml:space="preserve" width="53.77409672337315" height="109.74267096196252" class="icon-s-0" data-fill-palette-color="accent" id="s-0"><path fill="#0023ff" d="M43.758 60.575l1.002 17.536h0.912L44.1 59.92c-0.098 0.238-0.232 0.455-0.384 0.658L43.758 60.575z" data-fill-palette-color="accent"></path><path fill="#0023ff" d="M43.917 44.248l2.925 33.864h1.387l-4.107-34.285C44.065 43.974 43.994 44.112 43.917 44.248z" data-fill-palette-color="accent"></path><polygon fill="#0023ff" points="44.349,98.032 44.297,100.113 45.77,100.113 45.77,98.032 " data-fill-palette-color="accent"></polygon><rect x="46.937" y="98.032" fill="#0023ff" width="1.426" height="2.081" data-fill-palette-color="accent"></rect><polygon fill="#0023ff" points="43.129,100.099 43.182,98.032 41.169,98.032 41.169,100.113 43.713,100.113 " data-fill-palette-color="accent"></polygon><polygon fill="#0023ff" points="43.628,80.361 41.169,80.361 41.169,95.782 43.238,95.782 " data-fill-palette-color="accent"></polygon><polygon fill="#0023ff" points="44.406,95.782 45.77,95.782 45.77,80.361 44.794,80.361 " data-fill-palette-color="accent"></polygon><polygon fill="#0023ff" points="52.122,98.032 52.122,100.072 50.955,100.108 50.955,98.032 49.529,98.032 49.53,100.113   53.547,100.113 53.547,98.032 " data-fill-palette-color="accent"></polygon><rect x="46.937" y="80.361" fill="#0023ff" width="1.426" height="15.421" data-fill-palette-color="accent"></rect><path fill="#0023ff" d="M66.016 36.526c-1.469 0.284-1.773 2.552-1.773 2.552h-0.486c0.213-4.509 0.437-9.174 0.656-13.638h0.616c0 0 0.306 2.268 1.773 2.552 1.447 0.281 4.714-0.429 4.787-3.583-0.073-3.153-3.34-3.864-4.787-3.583-1.468 0.284-1.773 2.552-1.773 2.552h-0.516c0.105-2.143 0.209-4.226 0.309-6.201-0.045-0.332-0.061-0.692-0.078-1.061-0.073-1.591-0.183-3.996-3.15-4.117l-22.726 0c-2.943 0.121-3.053 2.525-3.125 4.116-0.017 0.368-0.033 0.729-0.081 1.167 0.098 1.94 0.201 3.988 0.306 6.095h-0.994c0 0-0.305-2.268-1.772-2.552-1.448-0.282-4.717 0.429-4.789 3.583 0.072 3.154 3.341 3.863 4.789 3.583 1.467-0.284 1.772-2.552 1.772-2.552h1.095c0.22 4.458 0.446 9.124 0.658 13.638h-0.966c0 0-0.306-2.268-1.772-2.552-1.448-0.281-4.718 0.429-4.79 3.583 0.072 3.152 3.342 3.863 4.79 3.583 1.467-0.284 1.772-2.552 1.772-2.552h1.063c0.233 4.99 0.445 9.704 0.61 13.636h-0.886c0 0-0.307-2.267-1.773-2.55-1.448-0.283-4.715 0.429-4.788 3.582 0.073 3.152 3.34 3.863 4.788 3.583 1.467-0.285 1.773-2.552 1.773-2.552h0.972c0.186 4.6 0.288 7.784 0.25 8.493-0.182 0.352-0.031 1.266 1.917 9.082 0.415 1.664 0.84 3.369 0.894 3.696h3.014l-0.953-16.647c-0.388 0.187-0.817 0.301-1.276 0.301-1.632 0-2.958-1.333-2.958-2.979 0-1.645 1.325-2.977 2.958-2.977 1.056 0 1.977 0.56 2.5 1.397L42.839 45.33c-0.436 0.254-0.934 0.41-1.474 0.41-1.632 0-2.958-1.333-2.958-2.978 0-1.645 1.325-2.978 2.958-2.978 1.005 0 1.891 0.507 2.425 1.278l-1.384-11.56c-0.327 0.125-0.671 0.213-1.041 0.213-1.632 0-2.958-1.332-2.958-2.978 0-1.645 1.325-2.978 2.958-2.978 1.635 0 2.959 1.333 2.959 2.978 0 0.8-0.319 1.518-0.829 2.053l5.903 49.322h1.68l5.427-49.319c-0.51-0.535-0.83-1.255-0.83-2.056 0-1.645 1.324-2.978 2.959-2.978 1.632 0 2.958 1.333 2.958 2.978 0 1.646-1.326 2.978-2.958 2.978-0.367 0-0.708-0.087-1.033-0.209l-1.253 11.389c0.541-0.672 1.358-1.11 2.286-1.11 1.632 0 2.958 1.333 2.958 2.978 0 1.645-1.326 2.978-2.958 2.978-0.531 0-1.021-0.152-1.452-0.398l-0.844 11.587c0.543-0.677 1.363-1.119 2.296-1.119 1.632 0 2.958 1.332 2.958 2.977 0 1.646-1.326 2.979-2.958 2.979-0.45 0-0.872-0.109-1.254-0.29l-0.539 16.637h3.062c0.054-0.327 0.479-2.033 0.895-3.697 1.95-7.817 2.101-8.73 1.918-9.081-0.038-0.709 0.063-3.892 0.251-8.493h0.486c0 0 0.308 2.267 1.773 2.552 1.45 0.28 4.716-0.431 4.789-3.583-0.073-3.153-3.339-3.865-4.789-3.582-1.466 0.283-1.773 2.55-1.773 2.55h-0.402c0.165-3.931 0.377-8.644 0.609-13.636h0.582c0 0 0.305 2.268 1.773 2.552 1.447 0.28 4.716-0.43 4.789-3.583C70.731 36.956 67.463 36.245 66.016 36.526z" data-fill-palette-color="accent"></path><rect x="52.121" y="80.361" fill="#0023ff" width="1.426" height="15.421" data-fill-palette-color="accent"></rect><polygon fill="#0023ff" points="56.111,98.032 54.714,98.032 54.714,100.113 56.164,100.113 " data-fill-palette-color="accent"></polygon><polygon fill="#0023ff" points="57.278,98.032 57.331,100.099 56.747,100.113 59.313,100.113 59.313,98.032 " data-fill-palette-color="accent"></polygon><polygon fill="#0023ff" points="59.313,80.361 56.831,80.361 57.222,95.782 59.313,95.782 " data-fill-palette-color="accent"></polygon><polygon fill="#0023ff" points="54.713,80.361 54.714,95.782 56.054,95.782 55.666,80.361 " data-fill-palette-color="accent"></polygon><path fill="#0023ff" d="M54.798 78.111h0.876l0.567-17.522 0.055 0.003c-0.074-0.097-0.141-0.196-0.202-0.3L54.798 78.111z" data-fill-palette-color="accent"></path><rect x="49.526" y="80.361" fill="#0023ff" width="1.429" height="15.421" data-fill-palette-color="accent"></rect><path fill="#0023ff" d="M52.25 78.111h1.379l2.462-33.853c-0.033-0.057-0.065-0.115-0.095-0.174L52.25 78.111z" data-fill-palette-color="accent"></path></svg></g></svg></g></svg></g></svg></g></svg></g><defs></defs></svg><rect width="395.52" height="122.74688767632345" fill="none" stroke="none" visibility="hidden"></rect></g></svg></g></svg>